<?xml version="1.0" encoding="utf-8"?>
<!-- Generator: Adobe Illustrator 18.0.0, SVG Export Plug-In . SVG Version: 6.00 Build 0)  -->
<!DOCTYPE svg PUBLIC "-//W3C//DTD SVG 1.1//EN" "http://www.w3.org/Graphics/SVG/1.1/DTD/svg11.dtd">
<svg version="1.1" xmlns="http://www.w3.org/2000/svg" xmlns:xlink="http://www.w3.org/1999/xlink" x="0px" y="0px"
	 viewBox="0 0 50.3 49" enable-background="new 0 0 50.3 49" xml:space="preserve">
<g id="Layer_1">
	<path id="github-icon_2_" fill="#FFFFFF" d="M25.1,0C11.3,0,0,11.3,0,25.1C0,36.2,7.2,45.7,17.2,49c1.3,0.2,1.7-0.5,1.7-1.2v-4.7
		c-7,1.5-8.4-3-8.4-3c-1.1-2.9-2.8-3.7-2.8-3.7c-2.3-1.6,0.2-1.5,0.2-1.5c2.5,0.2,3.9,2.6,3.9,2.6c2.2,3.8,5.9,2.7,7.3,2.1
		c0.2-1.6,0.9-2.7,1.6-3.4C15,35.6,9.1,33.5,9.1,23.8c0-2.7,1-5,2.6-6.7c-0.3-0.6-1.1-3.2,0.2-6.7c0,0,2.1-0.7,6.9,2.6
		c2-0.6,4.2-0.8,6.3-0.8c2.1,0,4.3,0.3,6.3,0.8c4.8-3.3,6.9-2.6,6.9-2.6c1.4,3.5,0.5,6,0.2,6.7c1.6,1.8,2.6,4,2.6,6.7
		c0,9.7-5.9,11.8-11.5,12.4c0.9,0.8,1.7,2.3,1.7,4.7c0,3.4,0,6.1,0,6.9c0,0.7,0.4,1.5,1.7,1.2c10-3.3,17.2-12.7,17.2-23.9
		C50.3,11.3,39,0,25.1,0z"/>
</g>
<g id="Layer_2" display="none">
</g>
</svg>
