<?xml version="1.0" encoding="utf-8"?>
<!-- Generator: Adobe Illustrator 18.0.0, SVG Export Plug-In . SVG Version: 6.00 Build 0)  -->
<!DOCTYPE svg PUBLIC "-//W3C//DTD SVG 1.1//EN" "http://www.w3.org/Graphics/SVG/1.1/DTD/svg11.dtd">
<svg version="1.1" xmlns="http://www.w3.org/2000/svg" xmlns:xlink="http://www.w3.org/1999/xlink" x="0px" y="0px"
	 viewBox="0 0 50.3 49" enable-background="new 0 0 50.3 49" xml:space="preserve">
<g id="Layer_1">
	<path id="instagram-circle-icon" fill="#FFFFFF" d="M37.1,13.6v3.1c0,0.5-0.4,0.9-0.9,0.9h-3c-0.5,0-0.9-0.4-0.9-0.9v-3.1
		c0-0.5,0.4-0.9,0.9-0.9h3C36.7,12.7,37.1,13.1,37.1,13.6z M25.5,28.8c2.3,0,4.1-1.8,4.1-4.1c0-2.3-1.8-4.1-4.1-4.1
		s-4.1,1.8-4.1,4.1C21.4,27,23.2,28.8,25.5,28.8z M50.3,24.6c0,13.9-11.3,25.2-25.2,25.2S0,38.5,0,24.6S11.3-0.6,25.2-0.6
		S50.3,10.7,50.3,24.6z M39.7,20.5h-8.3c0.8,1.2,1.3,2.6,1.3,4.2c0,4-3.2,7.2-7.2,7.2c-4,0-7.2-3.2-7.2-7.2c0-1.6,0.5-3,1.3-4.2
		h-8.2v12.7c0,3.1,2.5,5.6,5.6,5.6h17.1c3.1,0,5.6-2.5,5.6-5.6V20.5z M25.5,30.3c3.1,0,5.6-2.5,5.6-5.6c0-1.7-0.7-3.2-1.9-4.2
		c-0.4-0.4-0.9-0.7-1.4-0.9c-0.7-0.3-1.5-0.5-2.3-0.5c-0.8,0-1.6,0.2-2.3,0.5c-0.5,0.2-1,0.5-1.4,0.9c-1.2,1-1.9,2.5-1.9,4.2
		C19.9,27.8,22.4,30.3,25.5,30.3z M39.7,15.9c0-3.1-2.5-5.6-5.6-5.6H18.8v7.1h-1.1v-7.1H17c0,0-0.1,0-0.1,0v7.1h-1.1v-6.9
		c-0.3,0.1-0.5,0.2-0.8,0.3v6.7h-1.1v-6c-1.4,1-2.4,2.7-2.4,4.6v3.7h9c1.3-1.3,3.1-2.2,5.2-2.2c2,0,3.8,0.8,5.2,2.2h9L39.7,15.9
		L39.7,15.9z"/>
</g>
<g id="Layer_2" display="none">
</g>
</svg>
