<?xml version="1.0" encoding="utf-8"?>
<!-- Generator: Adobe Illustrator 18.0.0, SVG Export Plug-In . SVG Version: 6.00 Build 0)  -->
<!DOCTYPE svg PUBLIC "-//W3C//DTD SVG 1.1//EN" "http://www.w3.org/Graphics/SVG/1.1/DTD/svg11.dtd">
<svg version="1.1" xmlns="http://www.w3.org/2000/svg" xmlns:xlink="http://www.w3.org/1999/xlink" x="0px" y="0px"
	 viewBox="0 0 50.1 50.1" enable-background="new 0 0 50.1 50.1" xml:space="preserve">
<g id="Layer_1">
	<path id="linkedin-circle-icon_3_" fill="#FFFFFF" d="M25.1,0C11.2,0,0,11.2,0,25.1s11.2,25.1,25.1,25.1s25.1-11.2,25.1-25.1
		S38.9,0,25.1,0z M18.4,37.2h-5.5V19.4h5.5V37.2z M15.6,17.1c-1.8,0-3.3-1.5-3.3-3.3s1.5-3.3,3.3-3.3c1.8,0,3.3,1.5,3.3,3.3
		S17.4,17.1,15.6,17.1z M39,37.2h-5.5c0,0,0-6.8,0-9.3s-1-4-3-4c-2.2,0-3.4,1.5-3.4,4c0,2.7,0,9.3,0,9.3h-5.3V19.4h5.3v2.4
		c0,0,1.6-2.9,5.4-2.9c3.8,0,6.5,2.3,6.5,7.1C39,30.7,39,37.2,39,37.2z"/>
</g>
<g id="Layer_2" display="none">
</g>
</svg>
