<?xml version="1.0" encoding="utf-8"?>
<!-- Generator: Adobe Illustrator 18.0.0, SVG Export Plug-In . SVG Version: 6.00 Build 0)  -->
<!DOCTYPE svg PUBLIC "-//W3C//DTD SVG 1.1//EN" "http://www.w3.org/Graphics/SVG/1.1/DTD/svg11.dtd">
<svg version="1.1" xmlns="http://www.w3.org/2000/svg" xmlns:xlink="http://www.w3.org/1999/xlink" x="0px" y="0px"
	 viewBox="0 0 51.5 51.5" enable-background="new 0 0 51.5 51.5" xml:space="preserve">
<g id="Layer_1">
	<path id="email-9-icon_2_" fill="#FFFFFF" d="M25.8,0C11.5,0,0,11.5,0,25.8s11.5,25.8,25.8,25.8S51.5,40,51.5,25.8S40,0,25.8,0z
		 M41.2,14.3L25.9,26.1L10.5,14.3H41.2z M10.4,17.5l9,6.9l-9,9L10.4,17.5L10.4,17.5z M10.5,37.2l11.1-11.1l4.3,3.3l4.3-3.3
		l11.1,11.1L10.5,37.2L10.5,37.2z M41.3,33.5l-9-9l9-6.9V33.5z"/>
</g>
<g id="Layer_2" display="none">
</g>
</svg>
