<svg width="800" height="500" xmlns="http://www.w3.org/2000/svg">
 <!-- Created with Method Draw - http://github.com/duopixel/Method-Draw/ -->
 <g>
  <title>Layer 1</title>
  <path id="svg_10" d="m-3.484457,310.635708c2.044691,-12.128335 93.033445,-45.144357 132.904922,-47.165746c39.871476,-2.021389 34.759749,41.775375 71.564189,58.620285c36.80444,16.844909 69.519497,21.561484 115.525047,18.866298c46.00555,-2.695185 75.653571,-16.171113 108.368628,-47.839543c32.715058,-31.66843 75.653571,-48.513339 127.793194,-66.032045c52.139623,-17.518706 159.485906,-15.497317 198.335037,13.475927c38.849131,28.973244 40.893822,39.08019 59.296042,47.839543c18.40222,8.759353 3.067037,215.61484 2.555864,215.277942c0.511173,0.336898 -815.320576,1.684491 -815.831749,1.347593c0.511173,0.336898 -0.511173,-67.716536 0,-110.502605c0.511173,-42.78607 -2.555864,-71.759314 -0.511173,-83.887649z" stroke-width="null" fill="#92e2fb"/>
  <path id="svg_11" d="m-14.5,438.5c121,-27 160,-44 249,-33c89,11 141,18 226,-18c85,-36 252,-35 292,-33c40,2 59,-5 78.5,29.5c19.5,34.5 -0.5,135.5 -1,135c0.5,0.5 -844.5,0.5 -844,0c-0.5,0.5 -121.5,-53.5 -0.5,-80.5z" stroke-width="null" fill="#49b1be"/>
  <path id="svg_12" d="m-12.5,456.5c121,-27 160,-44 249,-33c89,11 120,49 205,13c85,-36 291,-19 331,-17c40,2 42,-9 79.5,28.5c37.5,37.5 -19.5,89.5 -20,89c0.5,0.5 -844.5,0.5 -844,0c-0.5,0.5 -121.5,-53.5 -0.5,-80.5z" stroke-width="null" fill="#9abf31"/>
 </g>
</svg>