<svg width="800" height="500" xmlns="http://www.w3.org/2000/svg">
 <!-- Created with Method Draw - http://github.com/duopixel/Method-Draw/ -->
 <g>
  <title>Layer 1</title>
  <path stroke="null" id="svg_10" d="m58.71201,297.635708c6.797581,-12.128334 16.435955,-35.144357 54.908841,-37.165746c38.472887,-2.021389 33.540465,41.775375 69.053899,58.620285c35.513434,16.844909 67.080931,21.561484 111.472723,18.866298c44.391793,-2.695185 72.999837,-16.171113 104.567333,-47.839542c31.567497,-31.66843 72.999836,-48.513339 123.310534,-66.032045c50.310698,-17.518706 153.891547,-15.497317 191.377949,13.475927c37.486403,28.973244 34.459371,30.08019 52.216088,70.839543c17.756717,40.759353 7.959452,192.61484 7.466211,192.277942c0.493241,0.336898 -739.461564,15.010693 -741.86309,8.347592c-2.401526,-6.663101 -38.125221,-14.716535 -13.508916,-106.502605c24.616305,-91.78607 34.200846,-92.759315 40.998428,-104.887649z" stroke-width="null" fill="#92e2fb"/>
  <path stroke="null" id="svg_11" d="m56.26834,438.5c102.472401,-27 135.500696,-44 210.872957,-33c75.372262,11 119.409988,18 191.394732,-18c71.984745,-36 211.413595,-33 247.288769,-33c35.875174,0 65.965882,-6 71.480029,28.5c5.514147,34.5 -5.42344,136.5 -5.846879,136c0.423439,0.5 -715.189608,0.5 -714.766168,0c-0.42344,0.5 -102.89584,-53.5 -0.42344,-80.5z" stroke-width="null" fill="#49b1be"/>
  <path stroke="null" id="svg_12" d="m59.554552,444.5c100.865923,-27 127.376426,-32 201.567064,-21c74.190638,11 100.03232,49 170.888547,13c70.856226,-36 236.515255,-27 271.880402,-25c35.365146,2 58.253274,-11 70.313492,36.5c12.060218,47.5 -16.255252,89.5 -16.672054,89c0.416802,0.5 -703.977451,0.5 -703.560649,0c-0.416802,0.5 -95.282724,-65.5 5.583198,-92.5z" stroke-width="null" fill="#9abf31"/>
 </g>
</svg>