<svg width="1049" height="500" xmlns="http://www.w3.org/2000/svg">
 <!-- Created with Method Draw - http://github.com/duopixel/Method-Draw/ -->

 <g>
  <title>background</title>
  <rect fill="none" id="canvas_background" height="502" width="1051" y="-1" x="-1"/>
 </g>
 <g>
  <title>Layer 1</title>
  <path id="svg_7" d="m777,261.5c0,0 18,33 49,27c31,-6 77,-6 94,-1c17,5 42,29 53,29c11,0 23,-9 35,-15c12,-6 46,-23 46,-23c0,0 1,213 1,212.5c0,0.5 -273,3.5 -273,3c0,0.5 -6,-228.5 -5,-232.5z" fill-opacity="null" stroke-opacity="null" stroke-width="null" stroke="null" fill="#92e2fb"/>
  <path fill="#92e2fb" stroke-width="null" d="m-3.484457,310.635708c2.044691,-12.128335 93.033445,-45.144357 132.904922,-47.165746c39.871476,-2.021389 34.759749,41.775375 71.564189,58.620285c36.80444,16.844909 69.519497,21.561484 115.525047,18.866298c46.00555,-2.695185 75.653571,-16.171113 108.368628,-47.839543c32.715058,-31.66843 75.653571,-48.513339 127.793194,-66.032045c52.139623,-17.518706 159.485906,-15.497317 198.335037,13.475927c38.849131,28.973244 40.893822,39.08019 59.296042,47.839543c18.40222,8.759353 3.067037,215.61484 2.555864,215.277942c0.511173,0.336898 -815.320576,1.684491 -815.831749,1.347593c0.511173,0.336898 -0.511173,-67.716536 0,-110.502605c0.511173,-42.78607 -2.555864,-71.759314 -0.511173,-83.887649l-0.000001,0z" id="svg_10"/>
  <path fill="#49b1be" stroke-width="null" d="m-14.5,438.5c121,-27 160,-44 249,-33c89,11 141,18 226,-18c85,-36 252,-35 292,-33c40,2 59,-5 78.5,29.5c19.5,34.5 -0.5,135.5 -1,135c0.5,0.5 -844.5,0.5 -844,0c-0.5,0.5 -121.5,-53.5 -0.5,-80.5z" id="svg_11"/>
  <path fill="#9abf31" stroke-width="null" d="m-12.5,456.5c121,-27 160,-44 249,-33c89,11 120,49 205,13c85,-36 291,-19 331,-17c40,2 42,-9 79.5,28.5c37.5,37.5 -19.5,89.5 -20,89c0.5,0.5 -844.5,0.5 -844,0c-0.5,0.5 -121.5,-53.5 -0.5,-80.5z" id="svg_12"/>
  <path fill="#92e2fb" stroke-width="null" d="m1004.515543,305.635708c2.044691,-12.128335 93.033445,-45.144357 132.904922,-47.165746c39.871476,-2.021389 34.759749,41.775375 71.564189,58.620285c36.80444,16.844909 69.519497,21.561484 115.525047,18.866298c46.00555,-2.695185 75.653571,-16.171113 108.368628,-47.839543c32.715058,-31.66843 75.653571,-48.513339 127.793194,-66.032045c52.139623,-17.518706 159.485906,-15.497317 198.335037,13.475927c38.849131,28.973244 40.893822,39.08019 59.296042,47.839543c18.40222,8.759353 3.067037,215.61484 2.555864,215.277942c0.511173,0.336898 -815.320576,1.684491 -815.831749,1.347593c0.511173,0.336898 -0.511173,-67.716536 0,-110.502605c0.511173,-42.78607 -2.555864,-71.759314 -0.511173,-83.887649l-0.000001,0z" id="svg_1"/>
  <path fill="#49b1be" stroke-width="null" d="m993.5,433.5c121,-27 160,-44 249,-33c89,11 141,18 226,-18c85,-36 252,-35 292,-33c40,2 59,-5 78.5,29.5c19.5,34.5 -0.5,135.5 -1,135c0.5,0.5 -844.5,0.5 -844,0c-0.5,0.5 -121.5,-53.5 -0.5,-80.5z" id="svg_2"/>
  <path stroke="null" id="svg_5" d="m735.74206,354.617112c0.742061,0 45.312098,-2.940184 74.620891,-9.492844c29.308792,-6.55266 59.713517,-11.971375 91.638377,-0.911558c31.924859,11.059817 28.244787,26.686606 59.411319,47.492844c31.166532,20.806238 70.58284,31.866055 86.06677,28.522752c15.483929,-3.343303 2.896202,53.847895 -7.492643,56.504592c-10.388843,2.656697 -304.986774,7.910275 -304.986774,7.253578c0,0.656697 0,-129.369364 0.74206,-129.369364z" stroke-opacity="null" stroke-width="null" fill="#49b1be"/>
  <path fill="#9abf31" stroke-width="null" d="m995.5,451.5c121,-27 160,-44 249,-33c89,11 120,49 205,13c85,-36 291,-19 331,-17c40,2 42,-9 79.5,28.5c37.5,37.5 -19.5,89.5 -20,89c0.5,0.5 -844.5,0.5 -844,0c-0.5,0.5 -121.5,-53.5 -0.5,-80.5z" id="svg_3"/>
  <path stroke="null" id="svg_4" d="m700.934591,431.359376c-2.065409,-22 66.61594,-10.572724 113.908505,-17.722964c47.292565,-7.15024 52.801558,22.497605 87.377324,31.445929c34.575766,8.948324 47.21626,13.647845 79.319396,9.948324c32.103136,-3.699521 56.272051,24.450718 67.383637,21.563398c11.111586,-2.887321 -7.79777,137.628939 -7.79777,136.666499c0,0.96244 -341.125683,8.661961 -341.125683,7.699521c0,0.96244 3,-167.600707 0.934591,-189.600707z" fill-opacity="null" stroke-opacity="null" stroke-width="null" fill="#9abf31"/>
  <line stroke-linecap="null" stroke-linejoin="null" id="svg_6" y2="498" x2="1052" y1="18" x1="1052" stroke-width="5" stroke="#ff5656" fill="none"/>
 </g>
</svg>