<svg width="1100" height="500" xmlns="http://www.w3.org/2000/svg">
 <!-- Created with Method Draw - http://github.com/duopixel/Method-Draw/ -->

 <g>
  <title>background</title>
  <rect fill="none" id="canvas_background" height="502" width="1102" y="-1" x="-1"/>
 </g>
 <g>
  <title>Layer 1</title>
  <path stroke="null" id="svg_19" d="m1.367857,501.5l-0.367857,-260.5c-0.367857,0.5 12.103571,-43.5 32.646416,-68.5c20.542845,-25 34.628588,-54 72.178544,-51c37.549955,3 38.664244,58 65.885659,91c27.221414,33 54.428556,51 103.721388,18c76.871386,-78 90.192818,-22 111.071366,-54c20.878548,-32 44.657134,-105 78.757097,-110c34.099963,-5 77.964239,64 95.621373,100c17.657134,36 30.464317,75 75.385685,110c44.921368,35 95.785644,43 133.464213,19c37.678569,-24 41.657134,-67 41.289277,-67.5c0.367857,0.5 -1.103571,271.5 -1.471428,271c0.367857,0.5 -218.874889,1.5 -808.181733,2.5z" fill-opacity="null" stroke-opacity="null" stroke-width="null" fill="#92e2fb"/>
 </g>
</svg>