<svg width="930" height="500" xmlns="http://www.w3.org/2000/svg">
 <!-- Created with Method Draw - http://github.com/duopixel/Method-Draw/ -->

 <g>
  <title>background</title>
  <rect fill="none" id="canvas_background" height="502" width="932" y="-1" x="-1"/>
 </g>
 <g>
  <title>Layer 1</title>
  <rect stroke="null" id="svg_37" height="206.000575" width="930.002808" y="296.500191" x="-0.501405" stroke-opacity="null" stroke-width="null" fill="#92e2fb"/>
  <path stroke="null" id="svg_19" d="m176.590233,451.499848l-2.339708,-182.499765c-0.339703,0.5 11.177193,-43.5 30.147739,-68.5c18.970546,-25 31.978201,-54 66.654175,-51c34.675973,3 35.704978,58 60.842932,91c25.137954,33 50.262728,51 95.782807,18c70.987839,-78 83.289681,-22 102.570236,-54c19.280555,-32 41.239186,-105 72.729222,-110c31.490035,-5 71.997046,41.999934 88.302747,100c16.305701,58.000066 43.898273,95.999813 69.61585,110c25.717577,14.000187 -25.320783,153.999795 -70.98122,150.499783c-45.660437,-3.500012 -89.1224,-5.500021 -513.32478,-3.500018z" fill-opacity="null" stroke-opacity="null" stroke-width="null" fill="#92e2fb"/>
  <ellipse stroke="null" ry="139.500413" rx="82.500248" id="svg_26" cy="260.000039" cx="1" fill-opacity="null" stroke-opacity="null" stroke-width="null" fill="#92e2fb"/>
  <path id="svg_29" d="m39.498715,192.499826c0,0 27.000082,-19.000057 33.0001,-2.000006c20.00006,58.000175 38.000115,71.000215 57.000172,77.000233c19.000058,6.000018 43.00013,-19.000058 51.000154,-32.000097c8.000024,-13.000039 14.000042,-25.000075 43.00013,-36.000108c29.000087,-11.000033 24.000072,16.000048 23.50147,15.500797c0.498602,0.499251 1.498605,142.49968 1.000003,142.000426c0.498602,0.499254 -203.502013,2.49926 -204.000612,2.000006c0.498599,0.499254 -4.501417,-166.501251 -4.501417,-166.501251z" stroke-opacity="null" stroke-width="null" stroke="null" fill="#92e2fb"/>
  <ellipse stroke="null" ry="139.500413" rx="82.500248" id="svg_30" cy="260.000039" cx="930" fill-opacity="null" stroke-opacity="null" stroke-width="null" fill="#92e2fb"/>
  <path id="svg_32" d="m638.500524,176.499778c0,0 41.000124,-11.000033 53.00016,16.000048c12.000036,27.000081 31.000093,56.000169 42.000127,64.000194c11.000033,8.000024 40.00012,31.000093 73.00022,11.000033c33.0001,-20.000061 42.000127,-46.00014 52.000157,-73.000221c10.00003,-27.000081 41.000124,4.000013 41.000124,5.000016c0,1.000003 7.000021,135.000407 6.501406,134.501154c0.498615,0.499253 -252.502149,12.499289 -253.000759,12.000036c0.49861,0.499253 -14.501435,-169.50126 -14.501435,-169.50126z" stroke-opacity="null" stroke-width="null" stroke="null" fill="#92e2fb"/>
  <ellipse ry="38.500116" rx="114.000344" id="svg_33" cy="402.000459" cx="1" stroke-opacity="null" stroke-width="null" stroke="null" fill="#49b1be"/>
  <ellipse ry="38.500116" rx="114.000344" id="svg_34" cy="402.000459" cx="930" stroke-opacity="null" stroke-width="null" stroke="null" fill="#49b1be"/>
  <path id="svg_36" d="m35.498703,457.500626c0,0 -24.499966,-95.000237 0.500109,-92.000228c25.000076,3.000009 41.499818,5.999953 57.999861,8.500051c16.500043,2.500098 28.499599,1.500111 48.500056,16.50009c20.000457,14.999979 67.499668,19.500233 102.499773,-7.499849c35.000106,-27.000081 61.000548,-20.000556 125.000741,-31.000589c64.000193,-11.000033 56.499436,-64.999815 138.500641,-47.99983c82.001205,16.999984 119.000607,35.499999 177.000782,54.500057c58.000175,19.000057 91.000209,53.500086 112.500331,42.000126c21.500122,-11.49996 40.000105,-23.000085 59.000162,-28.0001c19.000057,-5.000015 36.99988,-9.000093 47.999914,-1.000069c11.000033,8.000024 -0.499746,39.0002 -0.499746,40.000203c0,1.000003 3.000009,61.000184 2.501394,60.500928c0.498615,0.499256 -871.504018,4.499268 -872.002616,4.000012c0.498598,0.499256 0.498598,-18.500802 0.498598,-18.500802z" stroke-opacity="null" stroke-width="null" stroke="null" fill="#49b1be"/>
  <rect stroke="null" id="svg_25" height="80.000237" width="945.002895" y="422.500528" x="-7.501476" stroke-opacity="null" stroke-width="null" fill="#3f7f00"/>
 </g>
</svg>