<?xml version="1.0" encoding="UTF-8" standalone="no"?>
<!-- Created with Inkscape (http://www.inkscape.org/) -->

<svg
   xmlns:dc="http://purl.org/dc/elements/1.1/"
   xmlns:cc="http://creativecommons.org/ns#"
   xmlns:rdf="http://www.w3.org/1999/02/22-rdf-syntax-ns#"
   xmlns:svg="http://www.w3.org/2000/svg"
   xmlns="http://www.w3.org/2000/svg"
   xmlns:xlink="http://www.w3.org/1999/xlink"
   xmlns:sodipodi="http://sodipodi.sourceforge.net/DTD/sodipodi-0.dtd"
   xmlns:inkscape="http://www.inkscape.org/namespaces/inkscape"
   width="276.30597"
   height="557.68384"
   id="svg12285"
   version="1.1"
   inkscape:version="0.48.0 r9654"
   sodipodi:docname="just a tree.svg">
  <defs
     id="defs12287">
    <linearGradient
       inkscape:collect="always"
       id="linearGradient12396">
      <stop
         style="stop-color:#aa7d23;stop-opacity:1"
         offset="0"
         id="stop12398" />
      <stop
         style="stop-color:#986601;stop-opacity:1"
         offset="1"
         id="stop12400" />
    </linearGradient>
    <radialGradient
       inkscape:collect="always"
       xlink:href="#linearGradient10972"
       id="radialGradient12155"
       gradientUnits="userSpaceOnUse"
       gradientTransform="matrix(0.07894647,0.50694359,-0.43764103,0.06815232,638.29969,564.88839)"
       cx="-80.996529"
       cy="432.79779"
       fx="-80.996529"
       fy="432.79779"
       r="198.36472" />
    <linearGradient
       id="linearGradient10972">
      <stop
         style="stop-color:#339900;stop-opacity:1;"
         offset="0"
         id="stop10974" />
      <stop
         style="stop-color:#015a01;stop-opacity:1"
         offset="1"
         id="stop10976" />
    </linearGradient>
    <radialGradient
       inkscape:collect="always"
       xlink:href="#linearGradient11508"
       id="radialGradient12152"
       gradientUnits="userSpaceOnUse"
       gradientTransform="matrix(0.27479282,-1.4340745,0.66543522,0.12750911,310.05561,-437.22248)"
       cx="-537.40118"
       cy="338.70801"
       fx="-537.40118"
       fy="338.70801"
       r="114.64719" />
    <linearGradient
       inkscape:collect="always"
       id="linearGradient11508">
      <stop
         style="stop-color:#339900;stop-opacity:1"
         offset="0"
         id="stop11510" />
      <stop
         style="stop-color:#015a01;stop-opacity:1"
         offset="1"
         id="stop11512" />
    </linearGradient>
    <radialGradient
       inkscape:collect="always"
       xlink:href="#linearGradient11518"
       id="radialGradient12149"
       gradientUnits="userSpaceOnUse"
       gradientTransform="matrix(0.12217521,-0.55073608,0.52988298,0.11288127,179.65645,138.78411)"
       cx="-507.09659"
       cy="374.63495"
       fx="-507.09659"
       fy="374.63495"
       r="140.50288" />
    <linearGradient
       inkscape:collect="always"
       id="linearGradient11518">
      <stop
         style="stop-color:#339900;stop-opacity:1"
         offset="0"
         id="stop11520" />
      <stop
         style="stop-color:#015a01;stop-opacity:1"
         offset="1"
         id="stop11522" />
    </linearGradient>
    <radialGradient
       inkscape:collect="always"
       xlink:href="#linearGradient11518"
       id="radialGradient12146"
       gradientUnits="userSpaceOnUse"
       gradientTransform="matrix(0.12424279,-0.47622246,0.53885025,0.09760864,277.36273,181.08148)"
       cx="-507.09659"
       cy="374.63495"
       fx="-507.09659"
       fy="374.63495"
       r="140.50288" />
    <radialGradient
       inkscape:collect="always"
       xlink:href="#linearGradient10972"
       id="radialGradient12143"
       gradientUnits="userSpaceOnUse"
       gradientTransform="matrix(0.06543578,0.40874557,-0.36274431,0.05495081,483.47919,378.60731)"
       cx="-80.996529"
       cy="432.79779"
       fx="-80.996529"
       fy="432.79779"
       r="198.36472" />
    <linearGradient
       id="linearGradient12254">
      <stop
         style="stop-color:#339900;stop-opacity:1;"
         offset="0"
         id="stop12256" />
      <stop
         style="stop-color:#015a01;stop-opacity:1"
         offset="1"
         id="stop12258" />
    </linearGradient>
    <radialGradient
       inkscape:collect="always"
       xlink:href="#linearGradient11508"
       id="radialGradient12140"
       gradientUnits="userSpaceOnUse"
       gradientTransform="matrix(-0.90336325,-1.0349262,0.36713006,-0.5069476,-297.95973,202.72977)"
       cx="-537.40118"
       cy="338.70801"
       fx="-537.40118"
       fy="338.70801"
       r="114.64719" />
    <radialGradient
       inkscape:collect="always"
       xlink:href="#linearGradient11518"
       id="radialGradient12137"
       gradientUnits="userSpaceOnUse"
       gradientTransform="matrix(0.10976969,-0.48367383,0.47607933,0.0991359,250.01792,262.51268)"
       cx="-507.09659"
       cy="374.63495"
       fx="-507.09659"
       fy="374.63495"
       r="140.50288" />
    <radialGradient
       r="140.50288"
       fy="374.63495"
       fx="-507.09659"
       cy="374.63495"
       cx="-507.09659"
       gradientTransform="matrix(0.10976969,-0.48367383,0.47607933,0.0991359,250.01792,262.51268)"
       gradientUnits="userSpaceOnUse"
       id="radialGradient12283"
       xlink:href="#linearGradient11518"
       inkscape:collect="always" />
    <radialGradient
       inkscape:collect="always"
       xlink:href="#linearGradient11518"
       id="radialGradient12375"
       gradientUnits="userSpaceOnUse"
       gradientTransform="matrix(0.10976969,-0.48367383,0.47607933,0.0991359,235.13495,124.39389)"
       cx="-507.09659"
       cy="374.63495"
       fx="-507.09659"
       fy="374.63495"
       r="140.50288" />
    <radialGradient
       inkscape:collect="always"
       xlink:href="#linearGradient11508"
       id="radialGradient12378"
       gradientUnits="userSpaceOnUse"
       gradientTransform="matrix(-0.90336325,-1.0349262,0.36713006,-0.5069476,-312.84269,64.61098)"
       cx="-537.40118"
       cy="338.70801"
       fx="-537.40118"
       fy="338.70801"
       r="114.64719" />
    <radialGradient
       inkscape:collect="always"
       xlink:href="#linearGradient10972"
       id="radialGradient12381"
       gradientUnits="userSpaceOnUse"
       gradientTransform="matrix(0.06543578,0.40874557,-0.36274431,0.05495081,468.59622,240.48852)"
       cx="-80.996529"
       cy="432.79779"
       fx="-80.996529"
       fy="432.79779"
       r="198.36472" />
    <radialGradient
       inkscape:collect="always"
       xlink:href="#linearGradient11518"
       id="radialGradient12384"
       gradientUnits="userSpaceOnUse"
       gradientTransform="matrix(0.12424279,-0.47622246,0.53885025,0.09760864,262.47976,42.96269)"
       cx="-507.09659"
       cy="374.63495"
       fx="-507.09659"
       fy="374.63495"
       r="140.50288" />
    <radialGradient
       inkscape:collect="always"
       xlink:href="#linearGradient11518"
       id="radialGradient12387"
       gradientUnits="userSpaceOnUse"
       gradientTransform="matrix(0.12217521,-0.55073608,0.52988298,0.11288127,164.77348,0.66532)"
       cx="-507.09659"
       cy="374.63495"
       fx="-507.09659"
       fy="374.63495"
       r="140.50288" />
    <radialGradient
       inkscape:collect="always"
       xlink:href="#linearGradient11508"
       id="radialGradient12390"
       gradientUnits="userSpaceOnUse"
       gradientTransform="matrix(0.27479282,-1.4340745,0.66543522,0.12750911,295.17264,-575.34127)"
       cx="-537.40118"
       cy="338.70801"
       fx="-537.40118"
       fy="338.70801"
       r="114.64719" />
    <radialGradient
       inkscape:collect="always"
       xlink:href="#linearGradient10972"
       id="radialGradient12393"
       gradientUnits="userSpaceOnUse"
       gradientTransform="matrix(0.07894647,0.50694359,-0.43764103,0.06815232,623.41673,426.7696)"
       cx="-80.996529"
       cy="432.79779"
       fx="-80.996529"
       fy="432.79779"
       r="198.36472" />
    <radialGradient
       inkscape:collect="always"
       xlink:href="#linearGradient12396"
       id="radialGradient12402"
       cx="386.34476"
       cy="459.59039"
       fx="386.34476"
       fy="459.59039"
       r="75.882692"
       gradientTransform="matrix(-0.16929935,2.2123255,-0.31328051,-0.02397404,570.0814,-285.83916)"
       gradientUnits="userSpaceOnUse" />
  </defs>
  <sodipodi:namedview
     id="base"
     pagecolor="#ffffff"
     bordercolor="#666666"
     borderopacity="1.0"
     inkscape:pageopacity="0.0"
     inkscape:pageshadow="2"
     inkscape:zoom="0.98994949"
     inkscape:cx="65.430404"
     inkscape:cy="260.82438"
     inkscape:document-units="px"
     inkscape:current-layer="layer1"
     showgrid="false"
     fit-margin-top="20"
     fit-margin-left="20"
     fit-margin-right="1.4"
     fit-margin-bottom="1.5"
     inkscape:window-width="1152"
     inkscape:window-height="804"
     inkscape:window-x="-4"
     inkscape:window-y="-4"
     inkscape:window-maximized="1" />
  <metadata
     id="metadata12290">
    <rdf:RDF>
      <cc:Work
         rdf:about="">
        <dc:format>image/svg+xml</dc:format>
        <dc:type
           rdf:resource="http://purl.org/dc/dcmitype/StillImage" />
        <dc:title></dc:title>
      </cc:Work>
    </rdf:RDF>
  </metadata>
  <g
     inkscape:label="Layer 1"
     inkscape:groupmode="layer"
     id="layer1"
     transform="translate(-218.26131,-138.56997)">
    <g
       id="g12929">
      <path
         sodipodi:nodetypes="cccccccccccccccccccc"
         inkscape:connector-curvature="0"
         id="path9539"
         d="m 385.58773,176.21804 -39.62771,168.29258 -31.78671,-146.71021 25.87072,175.21021 -5.47775,-28.19594 20.29899,153.18286 -0.0626,0.90775 -13.75699,-11.45636 -50.84932,-191.00179 38.28179,180.53146 -36.4663,-30.34683 61.46053,71.61785 -11.40937,165.31893 28.35916,0.56343 2.95797,-151.5619 65.57666,-126.52069 -67.56433,93.23151 21.97368,-194.85188 -27.9992,175.83619 C 347.70534,333.49695 355.79861,352.81955 385.58773,176.21804 z"
         style="fill:#986601;stroke:#986601;stroke-width:3.00494480000000010;fill-opacity:1" />
      <path
         sodipodi:nodetypes="ccccccc"
         inkscape:connector-curvature="0"
         id="path10970"
         d="m 396.57108,380.58226 c 7.03876,-31.46768 18.65627,-53.53097 53.12814,-28.65338 36.55315,9.47086 43.18623,23.76754 30.44421,41.18923 6.5292,35.64079 16.34639,72.97538 -28.05643,82.37846 -16.90359,18.1723 -27.23794,13.3523 -34.62283,-1.79083 -25.18339,-3.17419 -47.56476,-9.74029 -42.98007,-48.94953 -10.01802,-30.01935 -7.56274,-49.06221 22.08698,-44.17395 z"
         style="fill:url(#radialGradient12393);fill-opacity:1;stroke:none" />
      <path
         sodipodi:nodetypes="ccccccc"
         inkscape:connector-curvature="0"
         id="path11496"
         d="m 345.32074,182.40354 c -5.37131,-32.43157 45.16464,-50.10535 62.02391,-8.86056 13.86207,-2.7537 35.68163,30.70771 19.69013,63.00842 15.42039,36.19904 -7.88844,46.81344 -23.62815,40.36477 -5.10922,25.62293 -12.54952,35.47246 -43.31829,21.65915 -35.80451,-1.94585 -44.59768,-38.78705 -28.5507,-54.14787 -16.65015,6.54751 -14.92399,-57.26238 13.7831,-62.02391 z"
         style="fill:url(#radialGradient12390);fill-opacity:1;stroke:none" />
      <path
         sodipodi:nodetypes="cccccccc"
         inkscape:connector-curvature="0"
         id="path11516"
         d="m 278.15748,275.97119 c 16.2496,-25.80591 34.49143,-30.28726 56.64768,-8.41087 30.95583,7.66219 28.00412,29.00633 20.59916,52.1474 8.31741,39.83157 -0.91594,62.46431 -36.04853,59.71718 -21.17135,38.76917 -42.34271,21.66766 -48.06469,4.20544 -10.58952,8.77348 -50.17309,-8.15143 -18.02427,-44.57762 -10.0115,-2.56395 -16.65438,-32.32658 6.00809,-43.73653 -4.49014,-17.15212 8.80473,-24.51267 18.88256,-19.345 z"
         style="opacity:0.95067264;fill:url(#radialGradient12387);fill-opacity:1;stroke:none" />
      <path
         style="opacity:0.94618835;fill:url(#radialGradient12384);fill-opacity:1;stroke:none"
         d="m 377.78256,281.02015 c 16.5246,-22.31441 35.07513,-26.18944 57.60634,-7.27289 31.47969,6.62551 28.47804,25.08183 20.94777,45.09196 8.45817,34.44242 -0.93145,54.01299 -36.65858,51.63755 -21.52963,33.52376 -43.05929,18.73606 -48.8781,3.63645 -10.76874,7.58644 -51.02217,-7.04857 -18.3293,-38.54635 -10.18093,-2.21705 -16.93623,-27.95285 6.10976,-37.81906 -4.56612,-14.83146 8.95373,-21.19615 19.20211,-16.72766 z"
         id="path11526"
         inkscape:connector-curvature="0"
         sodipodi:nodetypes="cccccccc" />
      <path
         style="opacity:0.91479821;fill:url(#radialGradient12381);fill-opacity:1;stroke:none"
         d="m 280.57234,203.24795 c 5.83418,-25.3722 15.46349,-43.1617 44.03593,-23.10305 30.29755,7.6363 35.79546,19.16363 25.23407,33.21063 5.41181,28.73696 13.54891,58.83961 -23.25493,66.42126 -14.01075,14.65221 -22.57651,10.76588 -28.69757,-1.44394 -20.87357,-2.55933 -39.42466,-7.85353 -35.62457,-39.46771 -8.30356,-24.20442 -6.26848,-39.55856 18.30707,-35.61719 z"
         id="path11530"
         inkscape:connector-curvature="0"
         sodipodi:nodetypes="ccccccc" />
      <path
         inkscape:transform-center-y="8.7238341"
         inkscape:transform-center-x="23.451857"
         style="opacity:0.93721972;fill:url(#radialGradient12378);fill-opacity:1;stroke:none"
         d="m 245.69515,441.84645 c -25.24624,-13.34571 -16.77739,-67.03698 19.4987,-58.77155 3.80907,-13.56464 36.62435,-13.928 52.89628,17.89294 32.09745,6.71283 29.93884,32.84452 18.81922,42.92934 16.05769,18.66441 19.95356,30.59378 -2.64017,49.63774 -16.26627,30.00614 -46.06418,17.18275 -50.29264,-5.27964 -2.27614,18.09205 -46.83745,-18.84029 -38.28139,-46.40883 z"
         id="path11534"
         inkscape:connector-curvature="0"
         sodipodi:nodetypes="ccccccc" />
      <path
         style="opacity:0.90582975;fill:url(#radialGradient12375);fill-opacity:1;stroke:none"
         d="m 337.00608,366.1762 c 14.59963,-22.66357 30.9892,-26.59923 50.89574,-7.3867 27.81262,6.72919 25.16062,25.47428 18.50755,45.7975 7.47287,34.98134 -0.82294,54.85813 -32.3882,52.44552 -19.02164,34.0483 -38.04329,19.02922 -43.18427,3.69334 -9.51427,7.70515 -45.07857,-7.15884 -16.19411,-39.14947 -8.99494,-2.25174 -14.96332,-28.39022 5.39804,-38.4108 -4.03422,-15.06354 7.9107,-21.5278 16.96525,-16.98939 z"
         id="path11538"
         inkscape:connector-curvature="0"
         sodipodi:nodetypes="cccccccc" />
    </g>
  </g>
</svg>
