<svg width="200" height="200" xmlns="http://www.w3.org/2000/svg">
 <!-- Created with Method Draw - http://github.com/duopixel/Method-Draw/ -->
 <defs>
  <filter height="200%" width="200%" y="-50%" x="-50%" id="svg_1_blur">
   <feGaussianBlur stdDeviation="0" in="SourceGraphic"/>
  </filter>
 </defs>
 <g>
  <title>background</title>
  <rect fill="none" id="canvas_background" height="202" width="202" y="-1" x="-1"/>
  <g display="none" overflow="visible" y="0" x="0" height="100%" width="100%" id="canvasGrid">
   <rect fill="url(#gridpattern)" stroke-width="0" y="0" x="0" height="100%" width="100%"/>
  </g>
 </g>
 <g>
  <title>Layer 1</title>
  <path stroke="#ffffff" filter="url(#svg_1_blur)" id="svg_1" d="m171.001347,105.274232l24.498647,-13.210824c-0.481598,-4.894756 -1.412356,-9.642971 -2.576733,-14.310699l-27.214495,-3.842295c-2.355508,-5.785362 -5.46604,-11.151125 -9.122407,-16.076642l10.3738,-26.012785c-3.411095,-3.391791 -7.094942,-6.484122 -10.972248,-9.329527l-23.108638,14.791239c-5.419001,-2.905508 -11.257453,-5.11228 -17.386434,-6.529576l-8.351101,-26.378114c-2.368452,-0.18235 -4.736222,-0.375005 -7.151588,-0.375005s-4.77644,0.188205 -7.152013,0.375005l-8.268369,26.144462c-6.293274,1.371879 -12.26064,3.604283 -17.818932,6.545653l-22.748759,-14.573663c-3.8724,2.845405 -7.556093,5.937743 -10.966916,9.329527l10.088316,25.294263c-3.931936,5.137935 -7.223856,10.806912 -9.696382,16.916716l-26.355359,3.716301c-1.159463,4.661171 -2.095091,9.404353 -2.571731,14.310116l23.654582,12.760208c0.267993,6.717026 1.360256,13.226922 3.294413,19.357223l-17.843742,20.115898c2.0757,4.389503 4.386655,8.646388 7.060055,12.640159l26.270888,-5.750211c4.30731,4.778289 9.214762,8.964849 14.629143,12.426987l-0.995765,27.4051c4.314556,1.984006 8.797445,3.644459 13.417206,4.971691l16.620086,-21.781585c2.948917,0.383843 5.93509,0.642373 8.980879,0.642373c3.299547,0 6.526328,-0.303917 9.701149,-0.748648l16.706632,21.90242c4.627014,-1.325699 9.103075,-2.986062 13.417191,-4.97018l-1.01498,-27.89726c5.160616,-3.40638 9.840125,-7.481632 13.965637,-12.082722l26.954107,5.896782c2.673414,-3.993158 4.984684,-8.245511 7.059637,-12.638686l-18.421684,-20.774519c1.769616,-5.806605 2.758127,-11.936292 3.045914,-18.25918l-0.000007,0zm-40.71857,31.73355l-11.615234,7.709489l-7.144144,-11.191293c-3.71649,1.457502 -7.717716,2.343749 -11.935656,2.343749c-18.421604,0 -33.350597,-15.227162 -33.350597,-34.006392c0,-18.779993 14.928994,-34.001262 33.350597,-34.001262c18.416793,0 33.351243,15.221269 33.351243,34.001262c0,9.384538 -3.728693,17.868061 -9.755859,24.023321l7.09965,11.121125z" stroke-width="2" fill="#cccccc"/>
 </g>
</svg>