<svg width="100" height="100" xmlns="http://www.w3.org/2000/svg">
 <!-- Created with Method Draw - http://github.com/duopixel/Method-Draw/ -->
 <defs>
  <radialGradient r="0.5" cy="0.5" cx="0.5" spreadMethod="pad" id="svg_7">
   <stop offset="0.167969" stop-opacity="0.996094" stop-color="#ff5656"/>
   <stop offset="0.746094" stop-color="#ff0000"/>
   <stop offset="1" stop-opacity="0.996094" stop-color="#bf0000"/>
  </radialGradient>
 </defs>
 <g>
  <title>background</title>
  <rect fill="none" id="canvas_background" height="102" width="102" y="-1" x="-1"/>
  <g display="none" overflow="visible" y="0" x="0" height="100%" width="100%" id="canvasGrid">
   <rect fill="url(#gridpattern)" stroke-width="0" y="0" x="0" height="100%" width="100%"/>
  </g>
 </g>
 <g>
  <title>Layer 1</title>
  <ellipse ry="50" rx="50" id="svg_2" cy="50" cx="50" stroke="#bf0000" fill="#bf0000"/>
  <line stroke-linecap="null" stroke-linejoin="null" id="svg_15" y2="50" x2="100.25" y1="49.75" x1="-0.25" fill-opacity="null" stroke-opacity="null" stroke-width="null" stroke="#ffaaaa" fill="none"/>
  <line transform="rotate(90 50,49.87500000000001) " stroke-linecap="null" stroke-linejoin="null" id="svg_16" y2="50" x2="100.25" y1="49.75" x1="-0.25" fill-opacity="null" stroke-opacity="null" stroke-width="null" stroke="#ffaaaa" fill="none"/>
  <line transform="rotate(45 49.99999999999998,49.87500000000001) " stroke-linecap="null" stroke-linejoin="null" id="svg_17" y2="50" x2="100.25" y1="49.75" x1="-0.25" fill-opacity="null" stroke-opacity="null" stroke-width="null" stroke="#ffaaaa" fill="none"/>
  <line transform="rotate(-45 49.99999999999998,49.87499999999998) " stroke-linecap="null" stroke-linejoin="null" id="svg_18" y2="50" x2="100.25" y1="49.75" x1="-0.25" fill-opacity="null" stroke-opacity="null" stroke-width="null" stroke="#ffaaaa" fill="none"/>
  <line transform="rotate(22.5 49.99999999999997,49.875) " stroke-linecap="null" stroke-linejoin="null" id="svg_19" y2="50" x2="100.25" y1="49.75" x1="-0.25" fill-opacity="null" stroke-opacity="null" stroke-width="null" stroke="#ffaaaa" fill="none"/>
  <line transform="rotate(-22.5 50.000000000000014,49.87500000000002) " stroke-linecap="null" stroke-linejoin="null" id="svg_20" y2="50" x2="100.25" y1="49.75" x1="-0.25" fill-opacity="null" stroke-opacity="null" stroke-width="null" stroke="#ffaaaa" fill="none"/>
  <line transform="rotate(67.5 50,49.87499999999999) " stroke-linecap="null" stroke-linejoin="null" id="svg_21" y2="50" x2="100.25" y1="49.75" x1="-0.25" fill-opacity="null" stroke-opacity="null" stroke-width="null" stroke="#ffaaaa" fill="none"/>
  <line transform="rotate(-67.5 49.999999999999986,49.875) " stroke-linecap="null" stroke-linejoin="null" id="svg_22" y2="50" x2="100.25" y1="49.75" x1="-0.25" fill-opacity="null" stroke-opacity="null" stroke-width="null" stroke="#ffaaaa" fill="none"/>
  <ellipse ry="40" rx="40" id="svg_1" cy="50" cx="50" stroke="#ffaaaa" fill="url(#svg_7)"/>
 </g>
</svg>